<svg width="36" height="36" viewBox="0 0 36 36" fill="none" xmlns="http://www.w3.org/2000/svg">
<path d="M25.875 3.9375H10.125C9.37908 3.9375 8.66371 4.23382 8.13626 4.76126C7.60882 5.28871 7.3125 6.00408 7.3125 6.75V31.5C7.3124 31.8013 7.39296 32.0971 7.54581 32.3567C7.69866 32.6163 7.91822 32.8303 8.18171 32.9764C8.44519 33.1225 8.74298 33.1954 9.04415 33.1875C9.34532 33.1796 9.63889 33.0912 9.89438 32.9316L17.9986 27.8691L26.1056 32.9316C26.3611 33.0912 26.6547 33.1796 26.9558 33.1875C27.257 33.1954 27.5548 33.1225 27.8183 32.9764C28.0818 32.8303 28.3013 32.6163 28.4542 32.3567C28.607 32.0971 28.6876 31.8013 28.6875 31.5V6.75C28.6875 6.00408 28.3912 5.28871 27.8637 4.76126C27.3363 4.23382 26.6209 3.9375 25.875 3.9375ZM25.3125 7.3125V21.7055L18.893 17.6934C18.6248 17.5258 18.3149 17.4369 17.9986 17.4369C17.6823 17.4369 17.3724 17.5258 17.1042 17.6934L10.6875 21.7055V7.3125H25.3125ZM18.893 24.4434C18.6248 24.2758 18.3149 24.1869 17.9986 24.1869C17.6823 24.1869 17.3724 24.2758 17.1042 24.4434L10.6875 28.4555V25.6852L18 21.1148L25.3125 25.6852V28.4555L18.893 24.4434Z" fill="#F24E1E"/>
</svg>
