<svg width="16" height="16" viewBox="0 0 16 16" fill="none" xmlns="http://www.w3.org/2000/svg">
<path d="M12.2189 15C11.6089 15 10.752 14.7793 9.46892 14.0625C7.9086 13.1875 6.70173 12.3796 5.14985 10.8318C3.6536 9.33652 2.92548 8.36839 1.90642 6.51402C0.755166 4.42027 0.951416 3.32277 1.17079 2.8537C1.43204 2.29308 1.81767 1.95777 2.3161 1.62495C2.59921 1.43947 2.89881 1.28046 3.2111 1.14995C3.24235 1.13652 3.27142 1.1237 3.29735 1.11214C3.45204 1.04245 3.68642 0.937142 3.98329 1.04964C4.18142 1.12402 4.35829 1.2762 4.63517 1.54964C5.20298 2.10964 5.97892 3.35683 6.26517 3.96933C6.45735 4.38214 6.58454 4.65464 6.58485 4.96027C6.58485 5.31808 6.40485 5.59402 6.18642 5.89183C6.14548 5.94777 6.10485 6.0012 6.06548 6.05308C5.82767 6.36558 5.77548 6.45589 5.80985 6.61714C5.87954 6.9412 6.39923 7.90589 7.25329 8.75808C8.10735 9.61027 9.04423 10.0971 9.36954 10.1665C9.53767 10.2025 9.62985 10.1481 9.95235 9.90183C9.9986 9.86652 10.0461 9.82995 10.0958 9.79339C10.4289 9.54558 10.692 9.37027 11.0414 9.37027H11.0433C11.3474 9.37027 11.6077 9.50214 12.0389 9.71964C12.6014 10.0034 13.8861 10.7693 14.4495 11.3378C14.7236 11.614 14.8764 11.7903 14.9511 11.9881C15.0636 12.2859 14.9577 12.5193 14.8886 12.6756C14.877 12.7015 14.8642 12.73 14.8508 12.7615C14.7193 13.0733 14.5593 13.3722 14.373 13.6546C14.0408 14.1515 13.7042 14.5362 13.1424 14.7978C12.8538 14.9342 12.5381 15.0034 12.2189 15Z" fill="white"/>
</svg>
