<svg width="30" height="30" viewBox="0 0 30 30" fill="none" xmlns="http://www.w3.org/2000/svg">
<path d="M15.0625 23.75L18.625 20.2187L15.0625 16.6875L13.75 18L15.0937 19.3438C14.5104 19.3646 13.9425 19.2708 13.39 19.0625C12.8375 18.8542 12.3429 18.5313 11.9062 18.0938C11.4896 17.6771 11.1717 17.1979 10.9525 16.6562C10.7333 16.1146 10.6242 15.5729 10.625 15.0312C10.625 14.6771 10.6721 14.3229 10.7662 13.9688C10.8604 13.6146 10.9904 13.2708 11.1563 12.9375L9.78125 11.5625C9.42708 12.0833 9.16667 12.6354 9 13.2187C8.83333 13.8021 8.75 14.3958 8.75 15C8.75 15.7917 8.90625 16.5729 9.21875 17.3438C9.53125 18.1146 9.98958 18.8021 10.5938 19.4062C11.1979 20.0104 11.875 20.4638 12.625 20.7663C13.375 21.0688 14.1458 21.23 14.9375 21.25L13.75 22.4375L15.0625 23.75ZM20.2187 18.4375C20.5729 17.9167 20.8333 17.3646 21 16.7813C21.1667 16.1979 21.25 15.6042 21.25 15C21.25 14.2083 21.0987 13.4217 20.7962 12.64C20.4937 11.8583 20.0408 11.1658 19.4375 10.5625C18.8333 9.95833 18.1508 9.51042 17.39 9.21875C16.6292 8.92708 15.8533 8.78125 15.0625 8.78125L16.25 7.5625L14.9375 6.25L11.375 9.78125L14.9375 13.3125L16.25 12L14.875 10.625C15.4375 10.625 16.0104 10.7346 16.5937 10.9537C17.1771 11.1729 17.6771 11.4904 18.0938 11.9062C18.5104 12.3229 18.8283 12.8021 19.0475 13.3438C19.2667 13.8854 19.3758 14.4271 19.375 14.9688C19.375 15.3229 19.3279 15.6771 19.2338 16.0312C19.1396 16.3854 19.0096 16.7292 18.8437 17.0625L20.2187 18.4375ZM15 27.5C13.2708 27.5 11.6458 27.1717 10.125 26.515C8.60417 25.8583 7.28125 24.9679 6.15625 23.8438C5.03125 22.7188 4.14083 21.3958 3.485 19.875C2.82917 18.3542 2.50083 16.7292 2.5 15C2.5 13.2708 2.82833 11.6458 3.485 10.125C4.14167 8.60417 5.03208 7.28125 6.15625 6.15625C7.28125 5.03125 8.60417 4.14083 10.125 3.485C11.6458 2.82917 13.2708 2.50083 15 2.5C16.7292 2.5 18.3542 2.82833 19.875 3.485C21.3958 4.14167 22.7188 5.03208 23.8438 6.15625C24.9688 7.28125 25.8596 8.60417 26.5162 10.125C27.1729 11.6458 27.5008 13.2708 27.5 15C27.5 16.7292 27.1717 18.3542 26.515 19.875C25.8583 21.3958 24.9679 22.7188 23.8438 23.8438C22.7188 24.9688 21.3958 25.8596 19.875 26.5162C18.3542 27.1729 16.7292 27.5008 15 27.5ZM15 25C17.7917 25 20.1562 24.0312 22.0937 22.0937C24.0312 20.1562 25 17.7917 25 15C25 12.2083 24.0312 9.84375 22.0937 7.90625C20.1562 5.96875 17.7917 5 15 5C12.2083 5 9.84375 5.96875 7.90625 7.90625C5.96875 9.84375 5 12.2083 5 15C5 17.7917 5.96875 20.1562 7.90625 22.0937C9.84375 24.0312 12.2083 25 15 25Z" fill="#5A5A5A"/>
</svg>
