<svg width="16" height="17" viewBox="0 0 16 17" fill="none" xmlns="http://www.w3.org/2000/svg">
<path d="M9.46665 2.41675C8.6489 2.41675 7.86464 2.7416 7.2864 3.31984C6.70816 3.89807 6.38331 4.68233 6.38331 5.50008V7.21675H4.73331C4.65047 7.21675 4.58331 7.28391 4.58331 7.36675V9.63341C4.58331 9.71626 4.65047 9.78341 4.73331 9.78341H6.38331V14.4334C6.38331 14.5163 6.45047 14.5834 6.53331 14.5834H8.79998C8.88282 14.5834 8.94998 14.5163 8.94998 14.4334V9.78341H10.6146C10.6834 9.78341 10.7434 9.73657 10.7601 9.66979L11.3268 7.40313C11.3505 7.30846 11.2788 7.21675 11.1813 7.21675H8.94998V5.50008C8.94998 5.36305 9.00441 5.23164 9.10131 5.13474C9.1982 5.03785 9.32962 4.98341 9.46665 4.98341H11.2C11.2828 4.98341 11.35 4.91626 11.35 4.83341V2.56675C11.35 2.48391 11.2828 2.41675 11.2 2.41675H9.46665Z" fill="white"/>
</svg>
