<svg width="33" height="34" viewBox="0 0 33 34" fill="none" xmlns="http://www.w3.org/2000/svg">
<path fill-rule="evenodd" clip-rule="evenodd" d="M16.9921 31.8787C20.7051 31.8787 24.2661 30.3258 26.8916 27.5616C29.5171 24.7975 30.9921 21.0485 30.9921 17.1394C30.9921 13.2302 29.5171 9.48125 26.8916 6.71709C24.2661 3.95294 20.7051 2.40005 16.9921 2.40005C13.279 2.40005 9.71808 3.95294 7.09257 6.71709C4.46706 9.48125 2.99207 13.2302 2.99207 17.1394C2.99207 21.0485 4.46706 24.7975 7.09257 27.5616C9.71808 30.3258 13.279 31.8787 16.9921 31.8787ZM16.9921 33.9843C21.2355 33.9843 25.3052 32.2095 28.3058 29.0505C31.3064 25.8915 32.9921 21.6069 32.9921 17.1394C32.9921 12.6718 31.3064 8.38723 28.3058 5.2282C25.3052 2.06916 21.2355 0.294434 16.9921 0.294434C12.7486 0.294434 8.67894 2.06916 5.67836 5.2282C2.67778 8.38723 0.992065 12.6718 0.992065 17.1394C0.992065 21.6069 2.67778 25.8915 5.67836 29.0505C8.67894 32.2095 12.7486 33.9843 16.9921 33.9843Z" fill="#959EAD"/>
<path fill-rule="evenodd" clip-rule="evenodd" d="M14.9921 24.5093C14.9921 24.23 15.0974 23.9622 15.285 23.7648C15.4725 23.5674 15.7268 23.4564 15.9921 23.4564H17.9921C18.2573 23.4564 18.5116 23.5674 18.6992 23.7648C18.8867 23.9622 18.9921 24.23 18.9921 24.5093C18.9921 24.7885 18.8867 25.0563 18.6992 25.2537C18.5116 25.4511 18.2573 25.5621 17.9921 25.5621H15.9921C15.7268 25.5621 15.4725 25.4511 15.285 25.2537C15.0974 25.0563 14.9921 24.7885 14.9921 24.5093ZM10.9921 18.1924C10.9921 17.9132 11.0974 17.6454 11.285 17.448C11.4725 17.2505 11.7268 17.1396 11.9921 17.1396H21.9921C22.2573 17.1396 22.5116 17.2505 22.6992 17.448C22.8867 17.6454 22.9921 17.9132 22.9921 18.1924C22.9921 18.4716 22.8867 18.7394 22.6992 18.9369C22.5116 19.1343 22.2573 19.2452 21.9921 19.2452H11.9921C11.7268 19.2452 11.4725 19.1343 11.285 18.9369C11.0974 18.7394 10.9921 18.4716 10.9921 18.1924ZM6.99207 11.8756C6.99207 11.5963 7.09742 11.3286 7.28496 11.1311C7.4725 10.9337 7.72685 10.8228 7.99207 10.8228H25.9921C26.2573 10.8228 26.5116 10.9337 26.6992 11.1311C26.8867 11.3286 26.9921 11.5963 26.9921 11.8756C26.9921 12.1548 26.8867 12.4226 26.6992 12.62C26.5116 12.8174 26.2573 12.9284 25.9921 12.9284H7.99207C7.72685 12.9284 7.4725 12.8174 7.28496 12.62C7.09742 12.4226 6.99207 12.1548 6.99207 11.8756Z" fill="#959EAD"/>
</svg>
