<svg width="16" height="17" viewBox="0 0 16 17" fill="none" xmlns="http://www.w3.org/2000/svg">
<path d="M3.16667 1.75C2.38426 1.75 1.75 2.38426 1.75 3.16667C1.75 3.94907 2.38426 4.58333 3.16667 4.58333C3.94907 4.58333 4.58333 3.94907 4.58333 3.16667C4.58333 2.38426 3.94907 1.75 3.16667 1.75Z" fill="white"/>
<path d="M1.83333 5.75C1.78731 5.75 1.75 5.78731 1.75 5.83333V14.5C1.75 14.546 1.78731 14.5833 1.83333 14.5833H4.5C4.54602 14.5833 4.58333 14.546 4.58333 14.5V5.83333C4.58333 5.78731 4.54602 5.75 4.5 5.75H1.83333Z" fill="white"/>
<path d="M6.16667 5.75C6.12064 5.75 6.08333 5.78731 6.08333 5.83333V14.5C6.08333 14.546 6.12064 14.5833 6.16667 14.5833H8.83333C8.87936 14.5833 8.91667 14.546 8.91667 14.5V9.83333C8.91667 9.50181 9.04836 9.18387 9.28278 8.94945C9.5172 8.71503 9.83515 8.58333 10.1667 8.58333C10.4982 8.58333 10.8161 8.71503 11.0506 8.94945C11.285 9.18387 11.4167 9.50181 11.4167 9.83333V14.5C11.4167 14.546 11.454 14.5833 11.5 14.5833H14.1667C14.2127 14.5833 14.25 14.546 14.25 14.5V8.7535C14.25 7.13567 12.8429 5.87 11.2332 6.01633C10.7368 6.06146 10.246 6.18487 9.78765 6.3813L8.91667 6.75457V5.83333C8.91667 5.78731 8.87936 5.75 8.83333 5.75H6.16667Z" fill="white"/>
</svg>
