<svg width="23" height="23" viewBox="0 0 23 23" fill="none" xmlns="http://www.w3.org/2000/svg">
<g opacity="0.7" clip-path="url(#clip0_26_235)">
<path d="M20.0007 19.4432L15.8623 15.2974L20.0007 19.4432ZM18.1557 9.75674C18.1557 11.8364 17.3295 13.8309 15.8589 15.3015C14.3884 16.772 12.3939 17.5982 10.3142 17.5982C8.23452 17.5982 6.24001 16.772 4.76946 15.3015C3.2989 13.8309 2.47275 11.8364 2.47275 9.75674C2.47275 7.67705 3.2989 5.68255 4.76946 4.21199C6.24001 2.74143 8.23452 1.91528 10.3142 1.91528C12.3939 1.91528 14.3884 2.74143 15.8589 4.21199C17.3295 5.68255 18.1557 7.67705 18.1557 9.75674V9.75674Z" stroke="white" stroke-width="2.21406" stroke-linecap="round"/>
</g>
<defs>
<clipPath id="clip0_26_235">
<rect width="22.1406" height="22.1406" fill="white" transform="translate(0.627686 0.0703125)"/>
</clipPath>
</defs>
</svg>
