<svg width="16" height="17" viewBox="0 0 16 17" fill="none" xmlns="http://www.w3.org/2000/svg">
<path d="M14.5398 4.65157C14.5785 4.59773 14.5214 4.5282 14.4596 4.55215C14.0205 4.72237 13.5615 4.83722 13.0934 4.89381C13.6146 4.5824 14.0169 4.10835 14.2399 3.5471C14.2626 3.48993 14.2002 3.43887 14.1464 3.46862C13.6619 3.73617 13.1394 3.92884 12.5966 4.0398C12.5739 4.04444 12.5505 4.03671 12.5345 4.01988C12.1272 3.59009 11.5911 3.30394 11.0066 3.20505C10.4098 3.10409 9.79638 3.20405 9.26254 3.48927C8.72871 3.7745 8.30464 4.22884 8.05685 4.78104C7.82124 5.30608 7.75766 5.89135 7.87387 6.45344C7.88289 6.49705 7.84875 6.53822 7.8043 6.53546C6.74826 6.46987 5.71646 6.18899 4.77245 5.70972C3.83085 5.23168 2.99703 4.56663 2.32178 3.75561C2.29181 3.71962 2.23501 3.72428 2.21318 3.76571C2.00306 4.16442 1.89305 4.60882 1.89335 5.06048C1.8925 5.51007 2.00283 5.95289 2.21452 6.34952C2.42621 6.74616 2.7327 7.08429 3.10669 7.33381C2.71007 7.32302 2.32118 7.22497 1.96752 7.0472C1.92194 7.02429 1.86727 7.05691 1.86964 7.10786C1.89722 7.70069 2.11485 8.29584 2.49156 8.75246C2.89244 9.23837 3.44886 9.57091 4.06668 9.69381C3.82886 9.76619 3.58194 9.80435 3.33335 9.80715C3.19806 9.80557 3.06303 9.79558 2.92904 9.77727C2.87936 9.77047 2.8388 9.81766 2.85619 9.86469C3.04047 10.363 3.36602 10.7978 3.79407 11.1153C4.2517 11.4546 4.80374 11.6428 5.37335 11.6538C4.41149 12.4107 3.22394 12.8237 2.00002 12.8271C1.87426 12.8276 1.74855 12.8235 1.62314 12.8149C1.55247 12.8101 1.51996 12.9043 1.58088 12.9404C2.77339 13.6481 4.13641 14.0222 5.52669 14.0205C6.55315 14.0311 7.57144 13.8372 8.52209 13.4499C9.47275 13.0626 10.3367 12.4897 11.0635 11.7648C11.7903 11.0399 12.3653 10.1774 12.7551 9.22775C13.1448 8.2781 13.3414 7.2603 13.3334 6.23381V5.91393C13.3334 5.89288 13.3433 5.87309 13.3601 5.8604C13.8123 5.51898 14.21 5.11135 14.5398 4.65157Z" fill="white"/>
</svg>
