<svg width="16" height="17" viewBox="0 0 16 17" fill="none" xmlns="http://www.w3.org/2000/svg">
<path fill-rule="evenodd" clip-rule="evenodd" d="M4.65926 3.76037C6.88304 3.58639 9.117 3.58639 11.3408 3.76037L12.8346 3.87723C13.6666 3.94233 14.3473 4.56593 14.4849 5.38911C14.829 7.44877 14.829 9.55127 14.4849 11.6109C14.3473 12.4341 13.6666 13.0577 12.8346 13.1228L11.3408 13.2397C9.117 13.4137 6.88303 13.4137 4.65925 13.2397L3.16545 13.1228C2.33341 13.0577 1.65272 12.4341 1.51518 11.6109C1.17105 9.55127 1.17105 7.44877 1.51518 5.38911C1.65272 4.56593 2.33341 3.94233 3.16545 3.87723L4.65926 3.76037ZM6.66667 10.1468V6.85326C6.66667 6.6978 6.83626 6.60178 6.96957 6.68176L9.71417 8.32852C9.84364 8.4062 9.84364 8.59384 9.71417 8.67152L6.96957 10.3183C6.83626 10.3983 6.66667 10.3022 6.66667 10.1468Z" fill="white"/>
</svg>
